<svg width="41" height="44" viewBox="0 0 41 44" fill="none" xmlns="http://www.w3.org/2000/svg">
<path d="M30.0183 5.34367C34.0583 7.46163 37.2766 10.8666 39.1636 15.0195C41.0507 19.1724 41.4987 23.8361 40.4368 28.2723C39.3749 32.7086 36.8637 36.6639 33.3007 39.5122C29.7378 42.3606 25.3266 43.9392 20.7654 43.9983C16.2042 44.0573 11.7536 42.5934 8.11814 39.8383C4.48263 37.0831 1.86988 33.1941 0.693469 28.7869C-0.482945 24.3797 -0.155818 19.7059 1.62307 15.5055C3.40195 11.3051 6.53097 7.81803 10.5148 5.59619L12.015 8.28596C8.6296 10.174 5.97067 13.1372 4.45904 16.7066C2.9474 20.2759 2.66942 24.2475 3.66909 27.9926C4.66877 31.7377 6.88899 35.0425 9.97832 37.3837C13.0677 39.7249 16.8496 40.9689 20.7255 40.9187C24.6014 40.8685 28.3499 39.5271 31.3776 37.1066C34.4053 34.6862 36.5392 31.3251 37.4416 27.5554C38.344 23.7856 37.9632 19.8226 36.3597 16.2936C34.7562 12.7645 32.0214 9.87115 28.5883 8.07138L30.0183 5.34367Z" fill="#C4C4C4"/>
<line x1="20.5" x2="20.5" y2="22" stroke="#C4C4C4" stroke-width="3"/>
</svg>
