<svg xmlns="http://www.w3.org/2000/svg">
    <symbol id="league-of-legends" viewBox="0 0 46 49">
        <title>lol</title>
        <path d="M41.2 40.06H28.26a15 15 0 0 0-7.18-28.94V3.08A23 23 0 0 1 41.2 40.06zM7.22 9.27V41.4l-.58.77A22.93 22.93 0 0 1 0 26c0-6.59 2.77-12.53 7.21-16.73zM5 0h14.08v42.06h25.71L38.62 49H4l5.21-6.94V4.8L5 0z" />
    </symbol>
    <symbol id="valorant" viewBox="0 0 51 46">
        <title>valorant</title>
        <path d="M.972.589l34.712 45H19.102L.972 22.084V.59zm50 .707v21.496l-5.94 7.7H28.451L50.972 1.297z" />
    </symbol>
    <symbol id="counter-strike" viewBox="0 0 50 50">
        <title>CSGO</title>
        <path d="M27.27 50a54.31 54.31 0 0 0-2.17-5.1 20.61 20.61 0 0 0-3.03-4.14c-.2-.6-.27-1.23-.42-1.84l.35-.68c.52.07 1.2.57 1.64.09.5-.75.89-1.59.84-2.5 0-1.55.44-3.1.22-4.64a1.7 1.7 0 0 0-1.41-1.36c.14-.5.27-1 .36-1.52 1.85.94 3.65 2.17 5.78 2.36-.08.39.68.54.08.05 1.18.17 1.76-.92 2.63-1.42 1.14-.8.84-2.36 1.33-3.5.35-.12.7-.22 1.04-.32-.18-1.11-.64-2.18-.56-3.33.62-.46 1.35-.96 1.6-1.7l.73-.36c1.75-.03 3.51 0 5.27-.01.45.02.29-.57.4-.83.44.28 1 .32 1.5.18.85-.28 1.75-.13 2.63-.17.57.02 1.2-.1 1.67.3.73-.13 1.48-.12 2.22-.1 0-.3.02-.6.03-.89-.58 0-1.15 0-1.73.02l-.52-.2-.38.27c-1.28.1-2.57.02-3.85.03.02-.39.22-.83-.13-1.15l-.3.35-.4-.48-.01-1.94-.46.02v2.46h-.47c0-.16.03-.47.04-.62-4.57-.05-9.13 0-13.7-.03v-.41l-.83-.21c0-.42-.01-.85-.23-1.23-.18.57-.3 1.15-.44 1.73-1.04-.08-1.93.65-2.98.48-.05-.6-.15-1.2-.15-1.8.5-.16 1.1-.22 1.45-.64.51-1.25.18-2.66-.35-3.84l.11-.28-.23-.42c-.74-.28-1.4-.7-2.07-1.12-.94-.46-2.07-.76-3.1-.4-3.13.55-4.78 4.5-3.4 7.19l-.5.45c-.6-.81-1.68-.59-2.53-.39-1.8.6-2.96 2.25-3.57 3.95-.75 2-.69 4.19-.43 6.27-.84.4-1.78.15-2.64.44a35.63 35.63 0 0 1-.47 4.99c-.07.49-.17 1 .01 1.47.76.17 1.52.37 2.3.47-.48.09-.93.26-1.36.48l.07.74-.4-.48c-.26 2.18.5 4.28.44 6.46-1.02-.22-.98.96-1.12 1.61l.42.39c-.13.23-.24.46-.33.7.18.63 0 1.37.56 1.83-.23 1.42-.49 2.84-.68 4.26A6 6 0 0 1 0 44V6a6 6 0 0 1 6-6h38a6 6 0 0 1 6 6v38a6 6 0 0 1-6 6H27.27zm-8.77 0H12.6c.32-.87.66-1.74 1.36-2.39.47-.4.44-1.09.84-1.53.29.54.51 1.13.95 1.58.39.16.82.12 1.23.14l1.5 2.2zm11.36-28.99l.85-.01c.16.39.25.8.29 1.22l-.34.36c-.41.91-1.01 1.78-1.76 2.42-.25-.63-.55-1.23-.9-1.8-.07-.5.62-.64.92-.89l.59-.35c-.4-.43-.03-.7.35-.95z" />
    </symbol>
    <symbol id="call-off-duty" viewBox="0 0 50 50">
        <title>cd</title>
        <path d="M7.7 0h34.6c2.68 0 3.65.28 4.63.8a5.45 5.45 0 0 1 2.27 2.27c.52.98.8 1.95.8 4.62v34.62c0 2.67-.28 3.64-.8 4.62a5.45 5.45 0 0 1-2.27 2.27c-.98.52-1.95.8-4.62.8H7.69c-2.67 0-3.64-.28-4.62-.8A5.45 5.45 0 0 1 .8 46.93c-.52-.98-.8-1.95-.8-4.62V7.69c0-2.67.28-3.64.8-4.62A5.45 5.45 0 0 1 3.07.8C4.05.28 5.02 0 7.69 0zm2.06 12.12a6.35 6.35 0 0 0-3.6 5.25c-.26 3.96-.12 7.93-.14 11.9.1 2.24.06 4.67 1.27 6.63 1.7 2.42 4.82 3.07 7.54 3.1 3.1.1 6.61-.98 8.3-3.86 1-2.32.8-4.96.87-7.45h-7.62c-.02 1.64.05 3.28-.04 4.92-.05.59-.06 1.29-.58 1.67-.67.3-1.74.23-1.95-.65-.33-2.18-.12-4.4-.18-6.6.06-3.46-.14-6.92.13-10.35-.04-1.52 2.56-1.53 2.52-.02.22 2.19.05 4.4.1 6.59h7.6c0-2.64.18-5.36-.62-7.92-.8-2.21-3.05-3.44-5.16-3.97-2.8-.59-5.84-.54-8.44.76zm27.48.04c-3.4-.15-6.82-.18-10.24-.15V39c3.65-.02 7.3.02 10.93-.02 1.99-.08 4.21-.15 5.76-1.58 1.4-1.55 1.2-3.8 1.28-5.74-.01-4.7.13-9.4-.11-14.1a5.04 5.04 0 0 0-2.34-4.23c-1.6-.91-3.48-1.04-5.28-1.17zm-2.41 4.47c.8.04 2.12-.01 2.22 1.15.24 3.24.05 6.5.1 9.74-.05 1.99.18 4.02-.25 5.96-.31.88-1.38.73-2.07.9V16.62z" />
    </symbol>
    <symbol id="dota-2" viewBox="0 0 100 100">
        <title>dota2</title>
        <path d="M23 56.8c.7.5.5.6 1.1 1.1l5.5 5.5c.7.9 1.5 1.4 2.3 2.3.5.5.6.6 1 1.2.4.5.7.6 1.2 1l5.5 5.7c.6.5.9.5 1.1 1.3-2.2.5-4.3 1.5-6.1 2-2.1.6-4.1 1.3-6.3 2.1-1.1.4-.9.2-2.5-1-1.1-.8-6.5-5.1-7.2-5.3.1-1.1.8-2.9 1.1-4 .4-1.3.7-2.6 1.1-3.9l2.2-8zm34-31.6c2.8-.6 12.1-4.2 13.4-4.2.8 0 5.6 3.9 6.8 4.2l-1.7 9.9c-.2 1.1-.5 2.4-.5 3.5-1.9-1-12.7-9.5-15.9-11.6-.7-.5-1.6-1.1-2.1-1.8zm-38.4-2.4l20.4 24c.6.7.9.9 1.4 1.6l2.2 2.6c.3.3.5.5.7.8l4.3 5.1c.3.4.5.5.8.9l15.2 17.8c1.9 2.2 1.1 1.1 3.2 1.2h4c.3 0 .6.1 1.1.1.9 0 .3-.1 1.1-.1 1.7 0 1.9.8 2.8-1.5l4-9.4c.5-1.2 1-2.6 1.5-3.7-.8-.2-20.9-15.9-22.7-17.2-1.3-1-2.4-1.8-3.7-2.9-.7-.5-1.2-.9-1.9-1.4L27.5 21.3c-.5-.4-.5-.4-.9-.4-.5.1-6.8 1.8-8 1.9zM36.2 7.2h-5.7c-1 0-.9-2.2-2.9-2.2H5c-.5 0-1.1.3-1.5.5-.2.2-.7.9-.7 1.2 0 5.7-.3 19.6.3 24.5.2 1.4.3 2.5.5 3.7.9 4 1.4 5.5 1.4 9.4 0 1.1-2.2 1.6-2.2 3.3V57c0 1.7 2.2 2.2 2.2 3.3v9.2c0 .8-2.2 6.3-2.2 7.2 0 2 2 7.5 2 9 0 .6-.8 2.6-1 3.4C3.2 90.9 1.6 95 5 95h31.6c.8 0 1.1-.3 1.5-.7 1.4.9 2.3 2.9 4.8 2.9h7.7c1.5 0 3.1-1 4.2-1.5 3.3-1.5 10.7-.2 13.6-.7.8-.2 1.2-.6 1.8-1 .9 1.3 2.3 3.3 4.4 3.3h11.6c2 0 2-1.8 2-3.7 2.9.2 6.5 2.5 8.3 1 .3-.2.7-.9.7-1.2V58.8c0-1.5-1.5-1.9-2-2.8-1.1-2 .8-9.9-.7-11.9-.2-.3-.4-.5-.6-.7-.4-.4-.2 0-.7-.6.6-1.2.9-2.1 1.8-3 .5-.5 2.1-1.9 2.1-2.7V25.4c0-1.3-1.2-5.4-1.6-7-.4-1.8-.5-1.8.3-3.3 1.9-3.6 1.3-2.9 1.3-8.3 0-.7-1-1.8-2.2-1.8-2.6 0-9.1-.3-11.2.2 0-1.3-.9-2.4-2.2-2.4H66.9c-2.4 0-4.6 2.4-5 4.4h-2c-.3-1.2-.4 0-.9-2.6-.2-1-.8-1.8-2-1.8H40.8C39.3 2.8 39 4 38.6 5c-.3 1-1.2 2.2-2.4 2.2z"/>
    </symbol>
    <symbol id="rocket-league" viewBox="0 0 54 52">
        <title>Rocket league</title>
        <path d="M10.828 34.385c13.979.753 23.143 4.254 27.493 10.505l-.075.068c-2.705 2.45-5.759 4.793-9.16 7.03-8.025-5.277-14.11-11.145-18.258-17.603zm7.916-17.9c12.32 1.644 21.958 7.445 28.913 17.403l-.156.25c-1.988 3.139-4.43 6.139-7.33 9-5.288-7.806-16.103-12.635-32.446-14.486a40.503 40.503 0 01-2.778-8.799 11.4 11.4 0 004.77 1.038 11.43 11.43 0 009.027-4.406zM29.086 3.592l.624.003C37.776 3.69 45.92 5.459 53.92 8.9c.44 7.614-.942 14.673-4.142 21.18-6.35-10.593-15.888-17.447-28.613-20.562v-.077c0-1.844-.435-3.586-1.21-5.128a59.29 59.29 0 018.506-.72l.625-.002zM9.169 0a8.895 8.895 0 110 17.79 8.895 8.895 0 010-17.79z" />
    </symbol>
</svg>
